<?xml version="1.0" standalone="no"?>
<!DOCTYPE svg PUBLIC "-//W3C//DTD SVG 20010904//EN"
 "http://www.w3.org/TR/2001/REC-SVG-20010904/DTD/svg10.dtd">
<svg version="1.0" xmlns="http://www.w3.org/2000/svg"
 width="800.000000pt" height="400.000000pt" viewBox="0 0 800.000000 400.000000"
 preserveAspectRatio="xMidYMid meet">

<g transform="translate(0.000000,400.000000) scale(0.100000,-0.100000)"
fill="#000000" stroke="none">
<path d="M0 3985 c0 -9 11 -27 25 -41 22 -22 24 -28 13 -42 -7 -10 -19 -21
-25 -25 -7 -4 -13 -18 -13 -30 0 -20 3 -19 30 12 35 38 54 36 58 -5 7 -60 62
-84 102 -44 41 41 13 100 -48 100 -42 0 -42 22 0 61 30 27 31 29 11 29 -12 0
-26 -6 -30 -12 -4 -7 -16 -19 -26 -27 -15 -12 -20 -10 -38 13 -22 28 -59 35
-59 11z m180 -115 c15 -28 -22 -65 -50 -50 -24 13 -25 28 -3 52 21 23 40 23
53 -2z"/>
<path d="M1768 3933 c38 -74 78 -123 99 -123 8 0 16 -7 19 -15 7 -18 27 -19
55 -4 20 10 20 12 3 30 -11 12 -24 17 -39 13 -28 -7 -65 36 -65 76 0 49 29 63
145 68 116 5 107 10 109 -63 1 -19 6 -30 16 -30 11 0 14 11 11 48 -3 53 12 62
44 27 10 -11 30 -20 45 -20 27 0 60 27 60 48 0 17 -20 15 -26 -2 -11 -29 -64
-29 -64 0 0 12 -39 14 -224 14 l-224 0 36 -67z"/>
<path d="M3766 3978 c4 -13 8 -33 8 -46 2 -46 56 -58 56 -12 0 20 -5 30 -15
30 -9 0 -15 9 -15 25 0 19 -5 25 -21 25 -17 0 -19 -4 -13 -22z"/>
<path d="M4008 3959 c46 -43 46 -49 -2 -90 -12 -9 -16 -21 -11 -28 5 -9 15 -4
36 19 34 37 53 35 57 -6 7 -60 62 -84 102 -44 41 41 13 100 -48 100 -45 0 -47
14 -6 54 33 32 34 36 16 36 -12 0 -25 -6 -29 -12 -4 -7 -16 -19 -26 -27 -15
-12 -20 -10 -38 13 -15 20 -29 26 -57 26 l-37 0 43 -41z m172 -89 c8 -15 6
-24 -10 -40 -16 -16 -25 -18 -40 -10 -24 13 -25 28 -3 52 21 23 40 23 53 -2z"/>
<path d="M5772 3926 c21 -41 53 -86 71 -100 17 -15 37 -31 44 -36 16 -13 29
-13 54 1 20 10 20 12 3 30 -11 12 -24 17 -39 13 -28 -7 -65 36 -65 76 0 49 29
63 144 68 101 4 103 4 109 -18 3 -13 3 -36 0 -52 -5 -25 -3 -29 13 -26 15 3
18 11 15 51 -3 53 12 62 44 27 10 -11 30 -20 45 -20 27 0 60 27 60 48 0 17
-20 15 -26 -2 -11 -29 -64 -29 -64 0 0 12 -39 14 -224 14 l-223 0 39 -74z"/>
<path d="M7766 3978 c4 -13 8 -33 8 -46 2 -46 56 -58 56 -12 0 20 -5 30 -15
30 -9 0 -15 9 -15 25 0 19 -5 25 -21 25 -17 0 -19 -4 -13 -22z"/>
<path d="M7970 3996 c0 -2 7 -9 15 -16 12 -10 15 -10 15 4 0 9 -7 16 -15 16
-8 0 -15 -2 -15 -4z"/>
<path d="M2962 3230 c-12 -5 -28 -7 -36 -4 -14 5 -36 -23 -36 -45 0 -6 14 -11
30 -11 20 0 30 5 30 15 0 11 11 15 35 15 40 0 85 -36 85 -67 0 -16 -130 -173
-149 -181 -9 -3 -48 33 -53 49 -3 8 -11 10 -23 5 -17 -6 -16 -9 13 -36 43 -39
42 -60 -1 -60 -60 0 -88 -59 -47 -100 41 -41 100 -13 100 48 0 42 22 42 60 0
27 -29 30 -30 36 -13 5 12 3 20 -5 23 -7 2 -21 13 -31 24 -16 17 -17 24 -7 38
25 35 152 140 170 140 31 0 67 -45 67 -85 0 -24 -4 -35 -15 -35 -10 0 -15 -10
-15 -30 0 -17 5 -30 13 -30 21 0 42 19 43 37 0 10 4 35 8 56 6 29 2 56 -18
120 l-27 83 -79 27 c-84 28 -111 31 -148 17z m-90 -357 c23 -20 23 -40 1 -51
-37 -19 -76 24 -47 52 19 20 23 20 46 -1z"/>
<path d="M6962 3230 c-12 -5 -28 -7 -36 -4 -14 5 -36 -23 -36 -45 0 -6 14 -11
30 -11 20 0 30 5 30 15 0 26 67 19 95 -10 41 -40 36 -53 -70 -167 -49 -53 -57
-57 -75 -46 -11 7 -23 21 -26 30 -3 10 -11 18 -18 18 -27 0 -25 -15 5 -42 36
-33 34 -52 -7 -56 -60 -7 -84 -62 -44 -102 41 -41 100 -13 100 48 0 41 22 42
59 2 26 -29 41 -31 41 -4 0 7 -8 15 -18 18 -9 3 -23 15 -30 26 -15 24 -20 17
83 108 38 34 77 62 88 62 31 0 67 -45 67 -85 0 -24 -4 -35 -15 -35 -10 0 -15
-10 -15 -30 0 -17 5 -30 13 -30 21 0 42 19 43 37 0 10 4 35 8 56 6 29 2 56
-18 120 l-27 83 -79 27 c-84 28 -111 31 -148 17z m-88 -359 c31 -35 -7 -74
-43 -43 -15 13 -17 22 -11 40 11 27 31 28 54 3z"/>
<path d="M1107 3193 c-8 -10 -17 -31 -19 -47 -4 -41 -23 -43 -57 -5 -27 30
-31 31 -37 14 -5 -12 -3 -20 5 -23 16 -5 52 -44 49 -53 -8 -19 -165 -149 -181
-149 -31 0 -67 45 -67 85 0 24 4 35 15 35 10 0 15 10 15 30 0 18 -5 30 -12 30
-21 -1 -44 -24 -45 -45 -1 -11 -4 -36 -8 -56 -5 -28 -1 -57 20 -116 l27 -80
83 -28 c67 -22 91 -26 122 -19 21 4 45 8 52 7 16 -2 40 25 41 45 0 7 -12 12
-30 12 -20 0 -30 -5 -30 -15 0 -11 -11 -15 -35 -15 -40 0 -85 36 -85 67 0 16
130 173 149 181 9 3 48 -33 53 -49 3 -8 11 -10 23 -5 17 6 16 10 -14 37 -38
34 -36 53 5 57 60 7 84 62 44 102 -25 25 -62 26 -83 3z m73 -33 c7 -14 6 -23
-6 -34 -19 -20 -23 -20 -46 1 -23 20 -23 39 -1 51 21 12 41 5 53 -18z"/>
<path d="M5107 3193 c-8 -10 -17 -31 -19 -47 -4 -41 -23 -43 -57 -5 -27 30
-31 31 -37 14 -5 -12 -3 -20 5 -23 16 -5 52 -44 49 -53 -8 -19 -165 -149 -181
-149 -31 0 -67 45 -67 85 0 24 4 35 15 35 10 0 15 10 15 30 0 46 -53 34 -57
-12 0 -13 -4 -39 -8 -59 -5 -28 0 -57 20 -116 l27 -80 83 -28 c67 -22 91 -26
122 -19 21 4 45 8 52 7 16 -2 40 25 41 45 0 7 -12 12 -30 12 -20 0 -30 -5 -30
-15 0 -11 -11 -15 -35 -15 -40 0 -85 36 -85 67 0 16 130 173 149 181 9 3 48
-33 53 -49 3 -8 11 -10 23 -5 17 6 16 10 -14 37 -38 34 -36 53 5 57 60 7 84
62 44 102 -25 25 -62 26 -83 3z m73 -33 c7 -14 6 -23 -6 -34 -19 -20 -23 -20
-46 1 -23 20 -23 39 -1 51 21 12 41 5 53 -18z"/>
<path d="M1962 2254 c-28 -19 -29 -65 -2 -89 35 -32 26 -47 -27 -43 -40 2 -48
0 -51 -16 -3 -16 0 -18 26 -13 16 3 39 3 52 0 22 -6 22 -8 18 -109 -5 -115
-19 -144 -68 -144 -40 0 -83 37 -76 65 4 15 -1 28 -13 39 -18 17 -20 17 -30
-3 -14 -25 -14 -38 -1 -54 5 -7 21 -27 36 -44 14 -18 59 -50 100 -71 l74 -39
74 39 c41 21 86 53 100 71 15 17 31 37 36 44 13 16 13 29 -1 54 -10 20 -12 20
-30 3 -12 -11 -17 -24 -13 -39 7 -28 -36 -65 -76 -65 -49 0 -63 29 -68 144 -4
101 -4 103 18 109 13 3 36 3 52 0 26 -5 29 -3 26 13 -3 16 -11 18 -51 16 -53
-4 -62 11 -27 43 39 35 13 105 -40 105 -9 0 -26 -7 -38 -16z m62 -20 c18 -18
18 -17 10 -38 -5 -14 -64 -24 -64 -12 0 2 -3 11 -6 19 -5 14 20 47 36 47 5 0
16 -7 24 -16z"/>
<path d="M5957 2252 c-23 -25 -21 -61 4 -88 29 -31 16 -46 -34 -42 -34 2 -42
0 -45 -16 -3 -16 0 -18 26 -13 16 3 39 3 52 0 22 -6 22 -8 18 -109 -5 -115
-19 -144 -68 -144 -39 0 -83 37 -76 63 6 23 -9 47 -30 47 -18 0 -29 -45 -15
-62 6 -7 22 -28 37 -45 14 -18 59 -50 100 -71 l74 -39 74 39 c41 21 86 53 100
71 15 17 31 38 37 45 14 17 3 62 -15 62 -21 0 -36 -24 -30 -47 7 -26 -37 -63
-76 -63 -49 0 -63 29 -68 144 -4 101 -4 103 18 109 13 3 36 3 52 0 26 -5 29
-3 26 13 -3 16 -11 18 -51 16 -53 -4 -62 11 -27 43 27 24 26 70 -2 89 -30 21
-61 20 -81 -2z m67 -18 c18 -18 18 -17 10 -38 -5 -14 -64 -24 -64 -12 0 2 -3
11 -6 19 -5 14 20 47 36 47 5 0 16 -7 24 -16z"/>
<path d="M60 2210 c-23 -15 1 -46 33 -42 30 3 67 -38 67 -73 0 -43 -30 -65
-97 -71 -50 -6 -63 -10 -63 -24 0 -14 13 -18 63 -24 67 -6 97 -28 97 -71 0
-34 -39 -78 -63 -71 -23 6 -47 -9 -47 -30 0 -16 49 -31 59 -18 3 5 23 22 43
37 23 17 52 55 76 102 l39 75 -39 75 c-22 41 -51 83 -65 92 -13 10 -33 26 -44
36 -21 19 -37 21 -59 7z"/>
<path d="M4060 2210 c-23 -15 1 -46 33 -42 17 2 32 -6 46 -24 26 -33 27 -65 3
-94 -17 -21 -30 -24 -124 -28 -102 -4 -106 -4 -113 17 -4 13 -4 33 -1 46 6 24
-7 41 -24 30 -5 -3 -6 -15 -1 -27 10 -28 2 -68 -14 -68 -6 0 -20 9 -30 20 -37
41 -105 14 -105 -42 0 -52 69 -77 105 -38 31 35 45 25 45 -31 0 -36 4 -49 13
-46 6 2 11 15 9 28 -1 13 0 35 3 48 6 23 7 24 112 19 95 -4 108 -7 125 -28 24
-29 23 -61 -3 -94 -16 -21 -27 -26 -45 -22 -17 4 -27 0 -39 -16 -15 -22 -14
-23 14 -32 19 -5 34 -5 43 3 7 6 28 22 45 37 18 14 50 59 71 100 l39 74 -39
75 c-22 41 -51 83 -65 92 -13 10 -33 26 -44 36 -21 19 -37 21 -59 7z m-256
-176 c31 -12 15 -74 -19 -74 -7 0 -35 32 -35 40 0 8 28 40 35 40 2 0 10 -3 19
-6z"/>
<path d="M7879 2113 c0 -4 0 -27 1 -50 2 -49 -15 -57 -45 -23 -37 41 -105 14
-105 -42 0 -52 69 -77 105 -38 32 35 47 26 44 -27 -3 -37 0 -48 11 -48 10 0
14 8 12 25 -1 14 0 35 3 48 5 19 12 22 50 22 38 0 45 3 45 20 0 17 -7 20 -45
20 -38 0 -45 3 -50 23 -3 12 -4 33 -3 46 2 13 -3 26 -9 28 -7 3 -13 1 -14 -4z
m-75 -79 c31 -12 15 -74 -19 -74 -7 0 -35 32 -35 40 0 8 28 40 35 40 2 0 10
-3 19 -6z"/>
<path d="M2928 1231 c-72 -39 -118 -77 -118 -97 0 -7 -7 -17 -16 -22 -12 -7
-15 -17 -9 -41 3 -17 10 -31 14 -31 17 0 40 37 35 57 -4 14 2 27 22 42 33 26
65 27 94 3 21 -17 24 -30 28 -124 4 -103 4 -105 -18 -111 -13 -3 -36 -3 -51 0
-22 4 -29 2 -29 -11 0 -17 7 -19 56 -16 41 2 51 -16 25 -44 -40 -43 -16 -106
41 -106 53 0 76 65 37 106 -29 30 -16 46 34 42 34 -2 42 1 45 16 3 16 -1 17
-35 12 -62 -10 -66 -2 -61 115 5 91 8 105 28 121 29 24 61 23 94 -3 20 -15 26
-28 22 -42 -5 -20 18 -57 35 -57 4 0 11 14 14 31 6 24 3 34 -9 41 -9 5 -16 15
-16 22 0 20 -51 62 -120 97 -36 19 -67 34 -70 35 -3 1 -35 -15 -72 -35z m106
-426 c12 -31 -17 -61 -48 -49 -38 14 -27 64 14 64 16 0 30 -7 34 -15z"/>
<path d="M6928 1231 c-72 -39 -118 -77 -118 -97 0 -7 -7 -17 -16 -22 -12 -7
-15 -17 -9 -41 3 -17 10 -31 14 -31 17 0 40 37 35 57 -4 14 2 27 22 42 33 26
65 27 94 3 21 -17 24 -30 28 -124 4 -103 4 -105 -18 -111 -13 -3 -36 -3 -51 0
-22 4 -29 2 -29 -11 0 -12 10 -16 44 -16 54 0 65 -14 37 -44 -40 -43 -16 -106
41 -106 53 0 76 65 37 106 -29 30 -16 46 34 42 34 -2 42 1 45 16 3 16 -1 17
-35 12 -62 -10 -66 -2 -61 115 5 91 8 105 28 121 29 24 61 23 94 -3 20 -15 26
-28 22 -42 -5 -20 18 -57 35 -57 4 0 11 14 14 31 6 24 3 34 -9 41 -9 5 -16 15
-16 22 0 20 -51 62 -120 97 -36 19 -67 34 -70 35 -3 1 -35 -15 -72 -35z m106
-426 c12 -31 -17 -61 -48 -49 -38 14 -27 64 14 64 16 0 30 -7 34 -15z"/>
<path d="M810 1190 c-41 -41 -13 -100 48 -100 42 0 42 -22 0 -60 -29 -27 -30
-30 -13 -36 12 -5 20 -3 23 5 5 16 44 52 53 49 19 -8 149 -165 149 -181 0 -31
-45 -67 -85 -67 -24 0 -35 4 -35 15 0 10 -10 15 -30 15 -46 0 -34 -53 12 -57
13 0 39 -4 59 -8 28 -5 57 0 116 20 l80 27 28 83 c22 67 26 91 19 122 -4 21
-8 45 -7 52 2 16 -25 40 -44 41 -8 0 -13 -12 -13 -30 0 -20 5 -30 15 -30 11 0
15 -11 15 -35 0 -40 -36 -85 -67 -85 -17 0 -174 129 -181 148 -3 10 32 48 49
54 8 3 10 11 5 23 -6 17 -10 16 -37 -14 -34 -38 -53 -36 -57 5 -7 60 -62 84
-102 44z m74 -26 c7 -18 -14 -54 -31 -54 -23 0 -44 30 -33 50 17 31 53 34 64
4z"/>
<path d="M4810 1190 c-41 -41 -13 -100 48 -100 42 0 42 -22 0 -60 -29 -27 -30
-30 -13 -36 12 -5 20 -3 23 5 5 16 44 52 53 49 19 -8 149 -165 149 -181 0 -31
-45 -67 -85 -67 -24 0 -35 4 -35 15 0 10 -10 15 -30 15 -46 0 -34 -53 12 -57
13 0 39 -4 59 -8 28 -5 57 0 116 20 l80 27 28 83 c22 67 26 91 19 122 -4 21
-8 45 -7 52 2 16 -25 40 -44 41 -8 0 -13 -12 -13 -30 0 -20 5 -30 15 -30 11 0
15 -11 15 -35 0 -40 -36 -85 -67 -85 -17 0 -174 129 -181 148 -3 10 32 48 49
54 8 3 10 11 5 23 -6 17 -10 16 -37 -14 -34 -38 -53 -36 -57 5 -7 60 -62 84
-102 44z m75 -28 c8 -21 -26 -55 -47 -47 -27 11 -31 38 -8 57 23 19 45 15 55
-10z"/>
<path d="M0 221 c0 -16 6 -21 25 -21 16 0 25 -6 25 -15 0 -10 10 -15 30 -15
18 0 30 5 30 13 -1 21 -24 43 -45 43 -11 0 -30 4 -42 8 -19 6 -23 4 -23 -13z"/>
<path d="M3884 213 l-71 -27 -27 -78 c-14 -42 -26 -84 -26 -93 0 -26 34 -16
52 15 27 47 60 49 112 6 30 -24 54 -36 76 -36 28 0 30 2 16 15 -40 40 -86 104
-86 119 0 30 46 66 85 66 24 0 35 -4 35 -15 0 -10 10 -15 30 -15 18 0 30 5 30
13 -1 20 -24 43 -45 44 -11 1 -40 4 -65 7 -34 4 -62 -1 -116 -21z"/>
<path d="M7884 212 l-71 -26 -27 -78 c-14 -42 -26 -84 -26 -93 0 -26 34 -16
52 15 27 47 60 49 112 6 78 -63 103 -38 40 40 -43 52 -41 85 6 112 36 20 40
52 8 51 -13 0 -55 -12 -94 -27z"/>
<path d="M1878 202 c-9 -9 -28 -25 -41 -35 -14 -9 -43 -51 -65 -92 l-39 -75
223 0 c185 0 224 2 224 14 0 29 53 29 64 0 7 -18 26 -18 26 -1 0 21 -34 47
-60 47 -13 0 -34 -9 -46 -21 -30 -29 -46 -16 -42 35 2 31 -1 41 -12 41 -10 0
-15 -11 -16 -30 -2 -73 7 -68 -109 -63 -116 5 -145 19 -145 68 0 40 37 83 65
76 15 -4 28 1 39 13 17 18 17 20 -3 30 -26 15 -43 13 -63 -7z"/>
<path d="M5878 202 c-9 -9 -28 -25 -41 -35 -14 -9 -43 -51 -65 -92 l-39 -75
223 0 c185 0 224 2 224 14 0 11 20 26 35 26 3 0 13 -10 25 -22 26 -28 38 -16
16 17 -20 31 -65 34 -91 5 -32 -35 -47 -26 -44 28 3 36 0 47 -11 47 -10 0 -15
-11 -16 -30 -2 -73 7 -68 -109 -63 -116 5 -145 19 -145 68 0 40 37 83 65 76
15 -4 28 1 39 13 17 18 17 20 -3 30 -26 15 -43 13 -63 -7z"/>
<path d="M0 15 c0 -8 7 -15 16 -15 14 0 14 3 4 15 -16 19 -20 19 -20 0z"/>
</g>
</svg>
